<?xml version="1.0" encoding="utf-8"?>
<!-- Generator: Adobe Illustrator 18.1.1, SVG Export Plug-In . SVG Version: 6.00 Build 0)  -->
<!DOCTYPE svg PUBLIC "-//W3C//DTD SVG 1.1//EN" "http://www.w3.org/Graphics/SVG/1.1/DTD/svg11.dtd">
<svg version="1.1" id="Layer_1" xmlns="http://www.w3.org/2000/svg" xmlns:xlink="http://www.w3.org/1999/xlink" x="0px" y="0px"
	 width="512px" height="512px" viewBox="-63 313 512 512" enable-background="new -63 313 512 512" xml:space="preserve">
<path d="M223.1,598.8l207.6-1.1l-0.3-60l-207.6,1.1 M162.9,539.2l-207.6,1.1l0.3,60l207.6-1.1 M296.6,538.5L89,539.6l0.3,60
	l207.6-1.1"/>
<path d="M223.1,459.4l207.6-1.1l-0.3-60l-207.6,1.1 M162.9,399.8l-207.6,1.1l0.3,60l207.6-1.1 M296.6,399.1L89,400.2l0.3,60L297,459
	"/>
<path d="M223.1,737.8l207.6-1.1l-0.3-60l-207.6,1.1 M162.9,678.1l-207.6,1.1l0.3,60l207.6-1.1 M296.6,677.4L89,678.5l0.3,60
	l207.6-1.1"/>
</svg>
